<?xml version="1.0" encoding="utf-8"?>
<!-- Generator: Adobe Illustrator 23.0.1, SVG Export Plug-In . SVG Version: 6.00 Build 0)  -->
<svg version="1.1" id="Ebene_1" xmlns="http://www.w3.org/2000/svg" xmlns:xlink="http://www.w3.org/1999/xlink" x="0px" y="0px"
	 viewBox="0 0 463 91" style="enable-background:new 0 0 463 91;" xml:space="preserve">
<style type="text/css">
	.st0{fill:#FFFFFF;}
</style>
<g>
	<path class="st0" d="M8.1,25c4-3.2,9.7-4.8,17.2-4.8c7.4,0,13.1,1.6,17.2,4.8c4.1,3.3,6.1,8.6,6.1,16v19.5c0,3.6,0.2,6.1,0.7,7.8
		l0.8,2.4v0.7v0.2h-6.8H39c-0.2-0.8-0.5-2.1-0.9-3.9c-0.2-0.7-0.3-1.6-0.4-2.6c-0.5,0.7-1,1.3-1.5,1.9c-3.3,3.8-8.7,5.7-16.3,5.7
		c-6.2,0-11.1-1.4-14.7-4.2C1.7,65.6,0,61.8,0,56.9c0-5,2-8.7,6-11.1s10-3.7,17.9-3.7h13.7V39c0-3.9-1.3-6.4-3.8-7.8
		c-2.4-1.3-5.3-1.9-8.4-1.9c-3.2,0-6,0.6-8.3,1.8c-2.4,1.2-3.7,3-3.7,5.6H2C2,32.1,4,28.2,8.1,25z M23.9,49.4
		c-4.1,0.1-7.3,0.7-9.3,2c-2.1,1.3-3.2,3.3-3.2,6c0,2.3,1,4.1,2.9,5.4c1.9,1.3,4.8,2,8.6,2c4.1,0,7.7-1.1,10.6-3.4
		c2.8-2.3,4.2-6.2,4.2-11.9C34.5,49.5,30,49.5,23.9,49.4z"/>
	<path class="st0" d="M73.6,80.9c2.1,0.9,4.9,1.3,8.3,1.3c3.9,0,7.2-1,10.1-3s4.3-5.3,4.3-9.8v-5.7c-0.1,0.2-0.3,0.4-0.4,0.7
		c-3.3,4.8-8.8,7.2-16.7,7.2c-7.6,0-13.4-2.5-17.5-7.4c-4.2-4.9-6.3-11-6.3-18.4s2.1-13.6,6.3-18.4c4.1-5,10-7.4,17.5-7.4
		c7.8,0,13.4,2.4,16.7,7.2c0.4,0.5,0.7,1.1,1.1,1.7c0.1-1.9,0.3-4.5,0.5-7.8h9.9v8.6v18.8v10.3v8.8c0,7.6-2.3,13.5-6.8,17.5
		c-4.6,4-10.7,6-18.4,6s-13.5-1.4-17.3-4.1c-3.9-2.7-6-6-6.4-9.8h11.4C70.3,78.8,71.5,80,73.6,80.9z M70.5,33.5
		c-2.7,3.2-4,7.3-4,12.2c0,5.3,1.3,9.4,4,12.4c2.6,3.1,6.2,4.7,10.8,4.7c4.7,0,8.3-1.6,11-4.9c2.7-3.2,4.1-7.3,4.1-12.2
		s-1.4-9-4.1-12.2c-2.7-3.3-6.3-4.9-11-4.9C76.7,28.7,73.1,30.3,70.5,33.5z"/>
	<path class="st0" d="M121.4,27.3c4.7-5,11.1-7.4,19-7.4c7.7,0,14,2.5,18.8,7.4s7.2,11.3,7.2,19v1.6c-0.1,0.5-0.1,1-0.1,1.6h-4.3
		h-1.8H155h-29.3c0.5,3.8,1.8,7,4,9.6c2.7,3.1,6.5,4.7,11.2,4.7c2.8,0,5.2-0.6,7.1-1.8c1.9-1.2,3.5-2.8,4.8-4.8h1.4h0.7h4h6.4
		c-1.9,4.7-4.9,8.6-9.1,11.4c-4.2,2.8-9.3,4.2-15.3,4.2c-8.3,0-14.8-2.5-19.5-7.4c-4.8-5-7.2-11.3-7.2-19
		C114.2,38.6,116.6,32.3,121.4,27.3z M154.7,42.1c-0.5-3.3-1.7-6.1-3.6-8.3c-2.5-3.2-6.1-4.8-10.8-4.8c-4.7,0-8.3,1.6-10.9,4.8
		c-1.9,2.2-3,5-3.6,8.3H154.7z"/>
	<path class="st0" d="M183.1,21c0.1,1.9,0.3,4.5,0.5,8c0.7-1.2,1.6-2.3,2.6-3.3c3.9-3.6,8.9-5.4,15.1-5.4c6.3,0,11.3,1.8,15.1,5.3
		c3.8,3.6,5.7,9.1,5.7,16.8v29.3H211v-9.9V42.3c0-4.7-1.3-8-3.8-10s-5.4-3-8.7-3c-3.3,0-6.6,1-9.7,3c-3,2-4.6,5.3-4.6,10V44v14.4
		v13.2h-11.1v-9.9V50.6V31.3V21H183.1z"/>
	<path class="st0" d="M235.7,65.4c-4.8-5-7.2-11.3-7.2-19.1c0-7.8,2.4-14.1,7.2-19c4.9-5,11.5-7.4,19.8-7.4c7,0,12.6,2,16.8,5.9
		c4.2,3.8,6.9,8.4,8,13.8h-6.3c-2.4-0.1-4-0.1-4.6-0.1c-1-3.1-2.7-5.6-5.1-7.6c-2.4-1.9-5.3-2.9-8.8-2.9c-4.6,0-8.3,1.6-11.2,4.8
		c-3,3.3-4.4,7.4-4.4,12.6c0,5.2,1.5,9.4,4.4,12.6c2.9,3.3,6.6,4.9,11.2,4.9c3.5,0,6.4-1,8.8-3c2.4-2,4.1-4.5,5.1-7.6h5.2h5.7
		c-1.1,5.3-3.8,9.8-8,13.8c-4.1,3.9-9.7,5.8-16.8,5.8C247.2,72.8,240.6,70.3,235.7,65.4z"/>
	<path class="st0" d="M286.5,2c1.3-1.3,3.1-2,5.3-2c2.3,0,4.1,0.7,5.4,2c1.3,1.3,2,3,2,5.1s-0.7,3.8-2,5.1s-3.1,2-5.4,2
		c-2.2,0-4-0.7-5.3-2s-2-3-2-5.1S285.1,3.3,286.5,2z M297.3,21v4.8v7.9v19.1v18.9h-11.1v-9.9V50.6V31.3V21H297.3z"/>
	<path class="st0" d="M311.1,27.3c4.7-5,11.1-7.4,19-7.4c7.7,0,14,2.5,18.8,7.4c4.8,5,7.2,11.3,7.2,19v1.6c-0.1,0.5-0.1,1-0.1,1.6
		h-4.3h-1.8h-5.1h-29.3c0.5,3.8,1.8,7,4,9.6c2.7,3.1,6.5,4.7,11.2,4.7c2.8,0,5.2-0.6,7.1-1.8c1.9-1.2,3.5-2.8,4.8-4.8h1.4h0.7h4h6.4
		c-1.9,4.7-4.9,8.6-9.1,11.4c-4.2,2.8-9.3,4.2-15.3,4.2c-8.3,0-14.8-2.5-19.5-7.4c-4.8-5-7.2-11.3-7.2-19
		C304,38.6,306.3,32.3,311.1,27.3z M344.4,42.1c-0.5-3.3-1.7-6.1-3.6-8.3c-2.5-3.2-6.1-4.8-10.8-4.8s-8.3,1.6-10.9,4.8
		c-1.9,2.2-3,5-3.6,8.3H344.4z"/>
	<path class="st0" d="M366.7,27.3c4.8-5,11.4-7.4,19.8-7.4s15,2.5,19.8,7.4c4.8,5,7.2,11.3,7.2,19c0,7.7-2.4,14-7.2,19
		c-4.7,5-11.3,7.4-19.7,7.4h-0.1c-8.4,0-15-2.5-19.8-7.4c-4.8-5-7.2-11.3-7.2-19C359.5,38.6,361.9,32.3,366.7,27.3z M397.8,33.9
		c-2.8-3.3-6.6-4.9-11.3-4.9c-4.7,0-8.4,1.6-11.3,4.9c-2.9,3.2-4.3,7.3-4.3,12.4c0,5.1,1.4,9.3,4.3,12.6c2.9,3.2,6.7,4.8,11.3,4.8
		c4.7,0,8.5-1.6,11.3-4.8c2.9-3.3,4.3-7.4,4.3-12.6C402.1,41.2,400.7,37.1,397.8,33.9z"/>
	<path class="st0" d="M432.3,30.4c-2.1,1.2-3.1,2.7-3.1,4.7c0,2.5,1.5,4.1,4.4,4.9c3,0.8,6.4,1.5,10.2,2.1c2.1,0.4,4.1,0.8,6.2,1.3
		c2,0.4,3.9,1.1,5.7,2c2.1,1,3.9,2.5,5.2,4.3c1.4,1.9,2.1,4.3,2.1,7.3c0,2.1-0.4,3.9-1.1,5.4c-0.7,1.6-1.7,3-3,4.2
		c-2.3,2.1-5.2,3.7-8.8,4.7c-3.6,0.9-7.1,1.3-10.4,1.3s-6.7-0.5-10.2-1.4c-3.5-1-6.4-2.5-8.7-4.7c-1.3-1.2-2.2-2.6-2.9-4.1
		c-0.7-1.6-1.1-3.4-1.1-5.4h11.3c0.1,2.4,1.3,4.2,3.8,5.2c2.4,1.1,5,1.7,7.8,1.7c3,0,5.7-0.5,8.2-1.6c2.4-1,3.7-2.6,3.7-4.8
		c0-1.4-0.4-2.5-1.3-3.3c-1-0.9-2.2-1.6-3.8-2.1c-2.8-1-6.3-1.7-10.4-2.2c-4.1-0.5-7.7-1.6-11-3.2c-2.1-1-3.9-2.5-5.2-4.3
		c-1.4-1.9-2.1-4.3-2.1-7.3c0-3.5,1.2-6.3,3.6-8.6c2.3-2.2,5-3.9,8.1-4.9c1.7-0.6,3.4-1,5.2-1.3c1.8-0.3,3.5-0.4,5.1-0.4
		c1.6,0,3.2,0.1,5,0.4c1.8,0.3,3.5,0.8,5.1,1.4c3.2,1.2,5.9,3,8.2,5.4c2.4,2.4,3.6,5.6,3.6,9.4h-11.4c0-2.3-1-4.2-3.1-5.7
		c-2.1-1.6-4.5-2.3-7.3-2.3C436.8,28.7,434.3,29.2,432.3,30.4z"/>
</g>
</svg>
